<!DOCTYPE svg PUBLIC "-//W3C//DTD SVG 1.1//EN" "http://www.w3.org/Graphics/SVG/1.1/DTD/svg11.dtd">
<!-- Uploaded to: SVG Repo, www.svgrepo.com, Transformed by: SVG Repo Mixer Tools -->
<svg fill="#000000" width="800px" height="800px" viewBox="0 0 24 24" id="image-frame" data-name="Flat Color" xmlns="http://www.w3.org/2000/svg" class="icon flat-color" stroke="#000000" stroke-width="0.00024000000000000003">
<g id="SVGRepo_bgCarrier" stroke-width="0"/>
<g id="SVGRepo_tracerCarrier" stroke-linecap="round" stroke-linejoin="round"/>
<g id="SVGRepo_iconCarrier">
<rect id="primary" x="2" y="3" width="20" height="18" rx="2" style="fill: #9c9c9c;"/>
<path id="secondary" d="M2.29,17,7,12.29a1,1,0,0,1,1.42,0l2.09,2.1,4.07-4.08a1,1,0,0,1,1.42,0L21.71,16a1,1,0,0,1,.29.71V19a2,2,0,0,1-2,2H4a2,2,0,0,1-2-2V17.71A1,1,0,0,1,2.29,17ZM7.5,7.5A1.5,1.5,0,1,0,9,6,1.5,1.5,0,0,0,7.5,7.5Z" style="fill: #e3e3e3;"/>
</g>
</svg>